<svg width="800" height="20" viewBox="0 0 800 20" fill="none" xmlns="http://www.w3.org/2000/svg" overflow="visible">
  <style>
    .zalgo {
      font-family: 'Courier New', Courier, monospace;
      font-size: 14px;
      fill: #a2a2a2; /* Cor cinza para o 'ruído' */
      opacity: 0.7;
      animation: flicker 2s infinite step-end;
    }
    @keyframes flicker {
      50% { opacity: 0.5; }
    }
  </style>
  
  <rect width="100%" height="2" y="9" fill="#39d353"/>
  
  <g class="zalgo">
    <text x="25" y="-12">¦</text>
    <text x="28" y="-2">|</text>
    <text x="26" y="10">▒</text>
    <text x="30" y="25">▓</text>
    <text x="27" y="38">¦</text>
    <text x="80" y="-8">|</text>
    <text x="82" y="5">¦</text>
    <text x="81" y="28">▒</text>
    <text x="123" y="-15">▓</text>
    <text x="125" y="0">|</text>
    <text x="122" y="15">¦</text>
    <text x="126" y="30">▒</text>
    <text x="124" y="45">▓</text>
    <text x="210" y="-5">▒</text>
    <text x="212" y="18">|</text>
    <text x="211" y="35">¦</text>
    <text x="290" y="-20">¦</text>
    <text x="293" y="-8">▒</text>
    <text x="291" y="8">▓</text>
    <text x="294" y="25">|</text>
    <text x="292" y="40">¦</text>
    <text x="350" y="-10">▓</text>
    <text x="352" y="12">|</text>
    <text x="351" y="32">▒</text>
    <text x="410" y="-18">|</text>
    <text x="413" y="2">¦</text>
    <text x="411" y="22">▒</text>
    <text x="414" y="42">▓</text>
    <text x="490" y="-4">▒</text>
    <text x="492" y="20">|</text>
    <text x="491" y="38">¦</text>
    <text x="560" y="-22">▓</text>
    <text x="563" y="-10">|</text>
    <text x="561" y="5">¦</text>
    <text x="564" y="28">▒</text>
    <text x="562" y="50">▓</text>
    <text x="630" y="-14">|</text>
    <text x="632" y="8">▒</text>
    <text x="631" y="30">¦</text>
    <text x="700" y="-9">▓</text>
    <text x="702" y="14">|</text>
    <text x="701" y="34">▒</text>
    <text x="750" y="-16">¦</text>
    <text x="753" y="-2">|</text>
    <text x="751" y="21">▓</text>
    <text x="754" y="44">▒</text>
  </g>
</svg>
